<svg width="18" height="18" viewBox="0 0 18 18" fill="none" xmlns="http://www.w3.org/2000/svg">
<circle cx="9" cy="9" r="8.5" stroke="white"/>
<path d="M8.75172 6.60713L13.1419 4.96082C13.3428 4.88546 13.5391 5.08172 13.4637 5.28269L11.8174 9.67283C11.7313 9.90253 11.4003 9.88368 11.3408 9.64568L10.8648 7.74165C10.8424 7.65208 10.7725 7.58215 10.6829 7.55975L8.77887 7.08375C8.54087 7.02425 8.52202 6.69327 8.75172 6.60713Z" stroke="white" stroke-width="0.5"/>
<path d="M9.6729 11.8174L5.28276 13.4637C5.08179 13.5391 4.88553 13.3428 4.9609 13.1419L6.6072 8.75173C6.69334 8.52203 7.02432 8.54088 7.08382 8.77888L7.55983 10.6829C7.58222 10.7725 7.65216 10.8424 7.74173 10.8648L9.64576 11.3408C9.88375 11.4003 9.9026 11.7313 9.6729 11.8174Z" fill="white" stroke="white" stroke-width="0.5"/>
</svg>
