<svg width="19" height="19" viewBox="0 0 19 19" fill="none" xmlns="http://www.w3.org/2000/svg">
<mask id="mask0_81_663" style="mask-type:luminance" maskUnits="userSpaceOnUse" x="1" y="1" width="17" height="17">
<path d="M17.1875 8H9.5V11.1875H13.925C13.5125 13.2125 11.7875 14.375 9.5 14.375C6.8 14.375 4.625 12.2 4.625 9.5C4.625 6.8 6.8 4.625 9.5 4.625C10.6625 4.625 11.7125 5.0375 12.5375 5.7125L14.9375 3.3125C13.475 2.0375 11.6 1.25 9.5 1.25C4.925 1.25 1.25 4.925 1.25 9.5C1.25 14.075 4.925 17.75 9.5 17.75C13.625 17.75 17.375 14.75 17.375 9.5C17.375 9.0125 17.3 8.4875 17.1875 8Z" fill="white"/>
</mask>
<g mask="url(#mask0_81_663)">
<path d="M0.5 14.375V4.625L6.875 9.5L0.5 14.375Z" fill="white"/>
</g>
<mask id="mask1_81_663" style="mask-type:luminance" maskUnits="userSpaceOnUse" x="1" y="1" width="17" height="17">
<path d="M17.1875 8H9.5V11.1875H13.925C13.5125 13.2125 11.7875 14.375 9.5 14.375C6.8 14.375 4.625 12.2 4.625 9.5C4.625 6.8 6.8 4.625 9.5 4.625C10.6625 4.625 11.7125 5.0375 12.5375 5.7125L14.9375 3.3125C13.475 2.0375 11.6 1.25 9.5 1.25C4.925 1.25 1.25 4.925 1.25 9.5C1.25 14.075 4.925 17.75 9.5 17.75C13.625 17.75 17.375 14.75 17.375 9.5C17.375 9.0125 17.3 8.4875 17.1875 8Z" fill="white"/>
</mask>
<g mask="url(#mask1_81_663)">
<path d="M0.5 4.625L6.875 9.5L9.5 7.2125L18.5 5.75V0.5H0.5V4.625Z" fill="white"/>
</g>
<mask id="mask2_81_663" style="mask-type:luminance" maskUnits="userSpaceOnUse" x="1" y="1" width="17" height="17">
<path d="M17.1875 8H9.5V11.1875H13.925C13.5125 13.2125 11.7875 14.375 9.5 14.375C6.8 14.375 4.625 12.2 4.625 9.5C4.625 6.8 6.8 4.625 9.5 4.625C10.6625 4.625 11.7125 5.0375 12.5375 5.7125L14.9375 3.3125C13.475 2.0375 11.6 1.25 9.5 1.25C4.925 1.25 1.25 4.925 1.25 9.5C1.25 14.075 4.925 17.75 9.5 17.75C13.625 17.75 17.375 14.75 17.375 9.5C17.375 9.0125 17.3 8.4875 17.1875 8Z" fill="white"/>
</mask>
<g mask="url(#mask2_81_663)">
<path d="M0.5 14.375L11.75 5.75L14.7125 6.125L18.5 0.5V18.5H0.5V14.375Z" fill="white"/>
</g>
<mask id="mask3_81_663" style="mask-type:luminance" maskUnits="userSpaceOnUse" x="1" y="1" width="17" height="17">
<path d="M17.1875 8H9.5V11.1875H13.925C13.5125 13.2125 11.7875 14.375 9.5 14.375C6.8 14.375 4.625 12.2 4.625 9.5C4.625 6.8 6.8 4.625 9.5 4.625C10.6625 4.625 11.7125 5.0375 12.5375 5.7125L14.9375 3.3125C13.475 2.0375 11.6 1.25 9.5 1.25C4.925 1.25 1.25 4.925 1.25 9.5C1.25 14.075 4.925 17.75 9.5 17.75C13.625 17.75 17.375 14.75 17.375 9.5C17.375 9.0125 17.3 8.4875 17.1875 8Z" fill="white"/>
</mask>
<g mask="url(#mask3_81_663)">
<path d="M18.5 18.5L6.875 9.5L5.375 8.375L18.5 4.625V18.5Z" fill="white"/>
</g>
</svg>
