<svg width="10" height="12" viewBox="0 0 10 12" fill="none" xmlns="http://www.w3.org/2000/svg">
<g id="Group 41">
<path id="Line 37" d="M1.66667 3.33333C0.746192 3.33333 0 2.58714 0 1.66667C0 0.746192 0.746192 0 1.66667 0C2.58714 0 3.33333 0.746192 3.33333 1.66667C3.33333 2.58714 2.58714 3.33333 1.66667 3.33333Z" fill="white"/>
<path id="Line 40" d="M3.72008 9.94015C3.25985 10.7373 2.24053 11.0104 1.44338 10.5502C0.646221 10.09 0.373096 9.07064 0.833333 8.27348C1.29357 7.47633 2.31289 7.2032 3.11004 7.66344C3.9072 8.12368 4.18032 9.14299 3.72008 9.94015Z" fill="white"/>
<path id="Line 39" d="M8.33341 6.66671C7.41294 6.66671 6.66675 5.92052 6.66675 5.00004C6.66675 4.07957 7.41294 3.33337 8.33341 3.33337C9.25389 3.33337 10.0001 4.07957 10.0001 5.00004C10.0001 5.92052 9.25389 6.66671 8.33341 6.66671Z" fill="white"/>
<path id="Line 38" d="M1.66663 1.66669L8.33329 5.00002" stroke="white"/>
<path id="Line 41" d="M2.27686 9.10687L8.49694 5.00004" stroke="white"/>
</g>
</svg>
